HIERARCHY
ROOT Hips
{
    OFFSET   0.000000   0.000000   0.000000
    CHANNELS 6 Xposition Yposition Zposition Zrotation Xrotation Yrotation
    JOINT Chest
    {
        OFFSET   0.000000   8.007230   0.000000
        CHANNELS 3 Zrotation Xrotation Yrotation
        JOINT Chest2
        {
            OFFSET   0.000000  22.077100   0.000000
            CHANNELS 3 Zrotation Xrotation Yrotation
            JOINT Neck
            {
                OFFSET   0.000000  23.254800  -0.000021
                CHANNELS 3 Zrotation Xrotation Yrotation
                JOINT Head
                {
                    OFFSET   0.000000  14.370000   1.956610
                    CHANNELS 3 Zrotation Xrotation Yrotation
                    End Site
                    {
                        OFFSET   0.000000  19.566000   0.000000
                    }
                }
            }
            JOINT LeftCollar
            {
                OFFSET   3.911900  19.017000  -0.467063
                CHANNELS 3 Zrotation Xrotation Yrotation
                JOINT LeftShoulder
                {
                    OFFSET  10.383700   0.000000   0.000000
                    CHANNELS 3 Zrotation Xrotation Yrotation
                    JOINT LeftElbow
                    {
                        OFFSET  26.662100   0.001529   0.000325
                        CHANNELS 3 Zrotation Xrotation Yrotation
                        JOINT LeftWrist
                        {
                            OFFSET  28.869000  -0.000011  -0.000096
                            CHANNELS 3 Zrotation Xrotation Yrotation
                            JOINT LeftFinger0
                            {
                                OFFSET   2.044650  -2.323460   3.252850
                                CHANNELS 3 Zrotation Xrotation Yrotation
                                JOINT LeftFinger01
                                {
                                    OFFSET   3.088130   0.000000   0.000000
                                    CHANNELS 3 Zrotation Xrotation Yrotation
                                    JOINT LeftFinger02
                                    {
                                        OFFSET   2.639460   0.000000   0.000000
                                        CHANNELS 3 Zrotation Xrotation Yrotation
                                        End Site
                                        {
                                            OFFSET   2.582190   0.000000   0.000000
                                        }
                                    }
                                }
                            }
                            JOINT LeftFinger1
                            {
                                OFFSET   8.364480   0.000000   3.252850
                                CHANNELS 3 Zrotation Xrotation Yrotation
                                JOINT LeftFinger11
                                {
                                    OFFSET   4.646930   0.000000   0.000000
                                    CHANNELS 3 Zrotation Xrotation Yrotation
                                    JOINT LeftFinger12
                                    {
                                        OFFSET   2.323460   0.000000   0.000000
                                        CHANNELS 3 Zrotation Xrotation Yrotation
                                        End Site
                                        {
                                            OFFSET   2.273050   0.000000   0.000000
                                        }
                                    }
                                }
                            }
                            JOINT LeftFinger2
                            {
                                OFFSET   8.364480   0.000016   1.078090
                                CHANNELS 3 Zrotation Xrotation Yrotation
                                JOINT LeftFinger21
                                {
                                    OFFSET   5.111620   0.000000   0.000000
                                    CHANNELS 3 Zrotation Xrotation Yrotation
                                    JOINT LeftFinger22
                                    {
                                        OFFSET   2.788160   0.000017   0.000000
                                        CHANNELS 3 Zrotation Xrotation Yrotation
                                        End Site
                                        {
                                            OFFSET   2.727660   0.000000   0.000000
                                        }
                                    }
                                }
                            }
                            JOINT LeftFinger3
                            {
                                OFFSET   7.899780   0.000015  -1.078090
                                CHANNELS 3 Zrotation Xrotation Yrotation
                                JOINT LeftFinger31
                                {
                                    OFFSET   4.646920   0.000000   0.000000
                                    CHANNELS 3 Zrotation Xrotation Yrotation
                                    JOINT LeftFinger32
                                    {
                                        OFFSET   2.323470   0.000000   0.000000
                                        CHANNELS 3 Zrotation Xrotation Yrotation
                                        End Site
                                        {
                                            OFFSET   2.273050   0.000000   0.000000
                                        }
                                    }
                                }
                            }
                            JOINT LeftFinger4
                            {
                                OFFSET   7.435090   0.000000  -3.252850
                                CHANNELS 3 Zrotation Xrotation Yrotation
                                JOINT LeftFinger41
                                {
                                    OFFSET   3.717550   0.000000   0.000000
                                    CHANNELS 3 Zrotation Xrotation Yrotation
                                    JOINT LeftFinger42
                                    {
                                        OFFSET   1.858760   0.000000   0.000000
                                        CHANNELS 3 Zrotation Xrotation Yrotation
                                        End Site
                                        {
                                            OFFSET   1.818440   0.000000   0.000000
                                        }
                                    }
                                }
                            }
                        }
                    }
                }
            }
            JOINT RightCollar
            {
                OFFSET  -3.911900  19.017000  -0.467062
                CHANNELS 3 Zrotation Xrotation Yrotation
                JOINT RightShoulder
                {
                    OFFSET -10.383700   0.000015   0.000000
                    CHANNELS 3 Zrotation Xrotation Yrotation
                    JOINT RightElbow
                    {
                        OFFSET -26.662100   0.001341   0.000385
                        CHANNELS 3 Zrotation Xrotation Yrotation
                        JOINT RightWrist
                        {
                            OFFSET -28.869000   0.000025  -0.000080
                            CHANNELS 3 Zrotation Xrotation Yrotation
                            JOINT RightFinger0
                            {
                                OFFSET  -2.044650  -2.323490   3.252850
                                CHANNELS 3 Zrotation Xrotation Yrotation
                                JOINT RightFinger01
                                {
                                    OFFSET  -3.088130   0.000000   0.000000
                                    CHANNELS 3 Zrotation Xrotation Yrotation
                                    JOINT RightFinger02
                                    {
                                        OFFSET  -2.639460   0.000000   0.000000
                                        CHANNELS 3 Zrotation Xrotation Yrotation
                                        End Site
                                        {
                                            OFFSET  -2.582190   0.000000   0.000000
                                        }
                                    }
                                }
                            }
                            JOINT RightFinger1
                            {
                                OFFSET  -8.364480   0.000000   3.252850
                                CHANNELS 3 Zrotation Xrotation Yrotation
                                JOINT RightFinger11
                                {
                                    OFFSET  -4.646930   0.000000   0.000000
                                    CHANNELS 3 Zrotation Xrotation Yrotation
                                    JOINT RightFinger12
                                    {
                                        OFFSET  -2.323470   0.000000   0.000000
                                        CHANNELS 3 Zrotation Xrotation Yrotation
                                        End Site
                                        {
                                            OFFSET  -2.273050   0.000000   0.000000
                                        }
                                    }
                                }
                            }
                            JOINT RightFinger2
                            {
                                OFFSET  -8.364480   0.000000   1.078090
                                CHANNELS 3 Zrotation Xrotation Yrotation
                                JOINT RightFinger21
                                {
                                    OFFSET  -5.111610   0.000000   0.000000
                                    CHANNELS 3 Zrotation Xrotation Yrotation
                                    JOINT RightFinger22
                                    {
                                        OFFSET  -2.788160   0.000000   0.000000
                                        CHANNELS 3 Zrotation Xrotation Yrotation
                                        End Site
                                        {
                                            OFFSET  -2.727660   0.000000   0.000000
                                        }
                                    }
                                }
                            }
                            JOINT RightFinger3
                            {
                                OFFSET  -7.899780   0.000000  -1.078090
                                CHANNELS 3 Zrotation Xrotation Yrotation
                                JOINT RightFinger31
                                {
                                    OFFSET  -4.646920   0.000000   0.000000
                                    CHANNELS 3 Zrotation Xrotation Yrotation
                                    JOINT RightFinger32
                                    {
                                        OFFSET  -2.323470   0.000000   0.000000
                                        CHANNELS 3 Zrotation Xrotation Yrotation
                                        End Site
                                        {
                                            OFFSET  -2.273050   0.000000   0.000000
                                        }
                                    }
                                }
                            }
                            JOINT RightFinger4
                            {
                                OFFSET  -7.435090   0.000000  -3.252850
                                CHANNELS 3 Zrotation Xrotation Yrotation
                                JOINT RightFinger41
                                {
                                    OFFSET  -3.717550   0.000000   0.000000
                                    CHANNELS 3 Zrotation Xrotation Yrotation
                                    JOINT RightFinger42
                                    {
                                        OFFSET  -1.858770   0.000000   0.000000
                                        CHANNELS 3 Zrotation Xrotation Yrotation
                                        End Site
                                        {
                                            OFFSET  -1.818440   0.000000   0.000000
                                        }
                                    }
                                }
                            }
                        }
                    }
                }
            }
        }
    }
    JOINT LeftHip
    {
        OFFSET   9.783010   0.000000   0.000000
        CHANNELS 3 Zrotation Xrotation Yrotation
        JOINT LeftKnee
        {
            OFFSET   0.000070 -41.789100   0.000028
            CHANNELS 3 Zrotation Xrotation Yrotation
            JOINT LeftAnkle
            {
                OFFSET   0.000087 -41.133200  -0.000100
                CHANNELS 3 Zrotation Xrotation Yrotation
                JOINT LeftToe
                {
                    OFFSET   0.000000  -6.358960  14.674500
                    CHANNELS 3 Zrotation Xrotation Yrotation
                    End Site
                    {
                        OFFSET   0.000000   0.000000   3.913200
                    }
                }
            }
        }
    }
    JOINT RightHip
    {
        OFFSET  -9.783020   0.000000   0.000000
        CHANNELS 3 Zrotation Xrotation Yrotation
        JOINT RightKnee
        {
            OFFSET   0.000044 -41.789100  -0.000870
            CHANNELS 3 Zrotation Xrotation Yrotation
            JOINT RightAnkle
            {
                OFFSET  -0.000090 -41.133200  -0.000245
                CHANNELS 3 Zrotation Xrotation Yrotation
                JOINT RightToe
                {
                    OFFSET   0.000000  -6.358960  14.674500
                    CHANNELS 3 Zrotation Xrotation Yrotation
                    End Site
                    {
                        OFFSET   0.000000   0.000000   3.913200
                    }
                }
            }
        }
    }
}
MOTION
Frames: 4
Frame Time:   0.016667
 -0.367261  89.794700  -5.150950  -0.330499  -7.134410   2.819300   0.965594   4.409020  -0.614462   1.987570   8.806700  -1.309440  -1.752380   3.020620   0.097707  -2.902040   6.107270   5.070550  -7.040810   2.266660  10.398800 -78.025000   2.565160  -2.878860  -0.688410  -3.825830 -21.693600   6.307050 -13.706200  -2.485150  37.024400  29.081200 -51.058500 -33.927200   0.001144   0.000823 -11.963600   0.000594  -0.004551 -32.368400   1.021050  -1.611870 -26.494500  -0.001803  -0.003606 -18.546100   0.009035  -0.000237 -31.434400  -3.714580   6.049470 -47.444900  -0.007791  -0.003853 -31.598300  -0.001031   0.001016 -27.957900  -4.372990   8.175270 -33.952400   0.001091  -0.003697 -22.612300   0.000000  -0.000000 -33.843600  -5.194030   7.686000 -51.287800  -0.007608   0.000853 -34.157700   0.000528  -0.002237   6.628660   3.250790   8.146750  70.642300  -8.082440  -0.643101   2.054810  -8.524290  20.940200 -13.189300  -4.675370   3.826630 -39.605400  32.902500  66.789200  29.471900  -0.004850   0.002846   9.735980   0.000383   0.003698  26.701800   1.267800   2.519560  21.868600   0.007096   0.004961  15.308000   0.004954   0.001991  28.191900  -0.405656  -0.756360  33.362000  -0.004279  -0.002300  22.219100  -0.005969  -0.001582  28.624200  -0.411269  -0.753233  37.771100  -0.004061   0.006635  25.155500   0.003555   0.000957  32.722800  -0.691504  -1.074290  49.091700  -0.001759   0.001879  32.695100   0.002001  -0.001859   0.970903   2.345880  -4.628830   2.469790   7.410540  10.733300  -5.966620  -9.464060   3.634540   0.000000   0.000000  -0.000000  -0.290899   3.647120  -0.293520  -1.221600   7.243500 -13.309900   0.681232 -13.039800  -5.009030  -0.000000   0.000000  -0.000000
 -0.354447  89.793400  -5.121010  -0.327661  -7.167930   2.843060   0.966263   4.423590  -0.615780   1.989400   8.835830  -1.312420  -1.753510   3.068190   0.097723  -2.904310   6.203700   4.996960  -7.057290   2.281020  10.435200 -78.071500   2.305080  -2.952880  -0.743644  -3.860220 -22.122900   6.253240 -14.164900  -2.430060  36.957600  28.833000 -51.063900 -33.843300   0.001149   0.000831 -11.921600   0.000593  -0.004553 -32.429200   1.023360  -1.612670 -26.544300  -0.001820  -0.003604 -18.581000   0.009037  -0.000240 -31.544600  -3.713420   6.020090 -47.608300  -0.007843  -0.003852 -31.707100  -0.001041   0.001019 -27.971000  -4.364640   8.155510 -34.045500   0.001098  -0.003698 -22.674300   0.000000  -0.000000 -33.992000  -5.203780   7.664970 -51.508300  -0.007649   0.000855 -34.304600   0.000529  -0.002240   6.630060   3.231290   8.162310  70.611500  -8.334450  -0.663735   2.117180  -8.672700  21.393100 -13.199600  -4.885200   3.892570 -39.569900  32.656200  66.677500  29.270000  -0.004850   0.002815   9.635020   0.000385   0.003704  26.679200   1.312860   2.611940  21.851900   0.007095   0.004957  15.296300   0.004951   0.001989  28.202200  -0.390096  -0.727124  33.449700  -0.004296  -0.002303  22.277500  -0.006007  -0.001585  28.634900  -0.395432  -0.724077  37.951200  -0.004068   0.006637  25.275500   0.003548   0.000960  32.735000  -0.605189  -0.939556  49.109400  -0.001764   0.001877  32.706900   0.002000  -0.001859   0.964684   2.412710  -4.601480   2.474260   7.376320  10.732700  -5.966170  -9.325450   3.580420  -0.000000   0.000000   0.000000  -0.304501   3.786510  -0.284495  -1.214590   7.138510 -13.332700   0.746558 -12.947900  -4.971120  -0.000000   0.000000   0.000000
 -0.333545  89.790200  -5.068330  -0.323611  -7.225130   2.883590   0.969675   4.450440  -0.618902   1.996730   8.889430  -1.319520  -1.758500   3.142430   0.097758  -2.913070   6.354070   4.867870  -7.089400   2.313360  10.498200 -78.155300   1.851940  -3.079180  -0.870706  -3.993550 -22.919800   6.135040 -15.086800  -2.380000  36.881100  28.440200 -51.065100 -33.657000   0.001154   0.000839 -11.828500   0.000591  -0.004554 -32.538500   1.031750  -1.618250 -26.633900  -0.001861  -0.003601 -18.643700   0.009042  -0.000242 -31.764800  -3.709620   5.960850 -47.934900  -0.007931  -0.003851 -31.924600  -0.001063   0.001022 -27.999000  -4.343360   8.107010 -34.250500   0.001110  -0.003699 -22.810800   0.000000  -0.000000 -34.263000  -5.214120   7.595440 -51.910900  -0.007689   0.000859 -34.572700   0.000531  -0.002243   6.630580   3.197130   8.177750  70.561700  -8.810500  -0.696168   2.176400  -8.915790  22.230100 -13.178900  -5.424070   4.040470 -39.554400  32.253900  66.497100  28.875800  -0.004850   0.002757   9.437900   0.000388   0.003710  26.655000   1.373310   2.733400  21.835100   0.007089   0.004949  15.284600   0.004944   0.001983  28.225500  -0.374535  -0.697888  33.646400  -0.004332  -0.002312  22.408500  -0.006086  -0.001591  28.655800  -0.379594  -0.694922  38.319800  -0.004089   0.006640  25.521000   0.003534   0.000967  32.777800  -0.518864  -0.804830  49.175200  -0.001776   0.001874  32.750700   0.001998  -0.001860   0.961238   2.522340  -4.561010   2.481380   7.320220  10.733300  -5.969530  -9.070020   3.486190   0.000000   0.000000   0.000000  -0.327461   3.977950  -0.275486  -1.199230   7.032790 -13.381600   0.861878 -12.776800  -4.884820  -0.000000   0.000000   0.000000
 -0.317979  89.785100  -5.019700  -0.322146  -7.272030   2.919430   0.978947   4.475930  -0.624025   2.015990   8.940210  -1.331070  -1.770550   3.191180   0.097806  -2.933650   6.452360   4.757260  -7.124840   2.358740  10.556400 -78.233800   1.448910  -3.179170  -1.035300  -4.262410 -23.728800   5.956620 -16.097700  -2.444810  36.892800  28.168900 -51.043200 -33.412400   0.001150   0.000828 -11.706200   0.000589  -0.004550 -32.650000   1.048940  -1.637140 -26.725400  -0.001926  -0.003593 -18.707800   0.009050  -0.000242 -32.021000  -3.702740   5.890920 -48.315100  -0.008023  -0.003852 -32.177900  -0.001091   0.001026 -28.036900  -4.309020   8.031220 -34.537200   0.001122  -0.003699 -23.001700   0.000000   0.000000 -34.547800  -5.164640   7.422010 -52.323700  -0.007678   0.000863 -34.847600   0.000533  -0.002244   6.624490   3.169350   8.176700  70.525700  -9.319420  -0.722336   2.129760  -9.088850  23.064100 -13.064800  -6.224600   4.252050 -39.611900  31.931000  66.342400  28.450700  -0.004838   0.002690   9.225340   0.000382   0.003696  26.659600   1.391270   2.767320  21.840700   0.007074   0.004942  15.288500   0.004937   0.001973  28.257200  -0.422622  -0.786875  33.916700  -0.004377  -0.002322  22.588600  -0.006189  -0.001597  28.677900  -0.428231  -0.783611  38.763300  -0.004122   0.006645  25.816400   0.003518   0.000978  32.863800  -0.529811  -0.820072  49.308200  -0.001789   0.001874  32.839300   0.001985  -0.001864   0.970397   2.605930  -4.540120   2.484980   7.274880  10.748900  -5.982820  -8.805220   3.400090  -0.000000   0.000000  -0.000000  -0.345860   4.030270  -0.295622  -1.183450   7.043970 -13.446600   0.971740 -12.599500  -4.755850   0.000000   0.000000   0.000000
